# Blender v2.77 (sub 0) OBJ File: 'pixel.blend'
# www.blender.org
mtllib pixel.mtl
o Cube
v 0.120000 -0.120000 -0.120000
v 0.120000 -0.120000 0.120000
v -0.120000 -0.120000 0.120000
v -0.120000 -0.120000 -0.120000
v 0.120000 0.120000 -0.120000
v 0.120000 0.120000 0.120000
v -0.120000 0.120000 0.120000
v -0.120000 0.120000 -0.120000
v 0.135246 -0.120000 -0.360000
v 0.135246 -0.120000 -0.120000
v -0.104754 -0.120000 -0.120000
v -0.104754 -0.120000 -0.360000
v 0.135246 0.120000 -0.360000
v 0.135246 0.120000 -0.120000
v -0.104754 0.120000 -0.120000
v -0.104754 0.120000 -0.360000
v 0.120000 -0.120000 0.120000
v 0.120000 -0.120000 0.360000
v -0.120000 -0.120000 0.360000
v -0.120000 -0.120000 0.120000
v 0.120000 0.120000 0.120000
v 0.120000 0.120000 0.360000
v -0.120000 0.120000 0.360000
v -0.120000 0.120000 0.120000
v 0.120000 0.120000 -0.120000
v 0.120000 0.120000 0.120000
v -0.120000 0.120000 0.120000
v -0.120000 0.120000 -0.120000
v 0.120000 0.360000 -0.120000
v 0.120000 0.360000 0.120000
v -0.120000 0.360000 0.120000
v -0.120000 0.360000 -0.120000
v 0.120000 -0.360000 -0.120000
v 0.120000 -0.360000 0.120000
v -0.120000 -0.360000 0.120000
v -0.120000 -0.360000 -0.120000
v 0.120000 -0.120000 -0.120000
v 0.120000 -0.120000 0.120000
v -0.120000 -0.120000 0.120000
v -0.120000 -0.120000 -0.120000
v 0.143906 0.120000 0.120000
v 0.143906 0.120000 0.360000
v -0.096094 0.120000 0.360000
v -0.096094 0.120000 0.120000
v 0.143907 0.360000 0.120000
v 0.143906 0.360000 0.360000
v -0.096094 0.360000 0.360000
v -0.096094 0.360000 0.120000
v 0.120000 0.120000 -0.360000
v 0.120000 0.120000 -0.120000
v -0.120000 0.120000 -0.120000
v -0.120000 0.120000 -0.360000
v 0.120000 0.360000 -0.360000
v 0.120000 0.360000 -0.120000
v -0.120000 0.360000 -0.120000
v -0.120000 0.360000 -0.360000
v 0.120000 -0.120000 -0.600000
v 0.120000 -0.120000 -0.360000
v -0.120000 -0.120000 -0.360000
v -0.120000 -0.120000 -0.600000
v 0.120000 0.120000 -0.600000
v 0.120000 0.120000 -0.360000
v -0.120000 0.120000 -0.360000
v -0.120000 0.120000 -0.600000
v 0.120000 0.120000 -0.600000
v 0.120000 0.120000 -0.360000
v -0.120000 0.120000 -0.360000
v -0.120000 0.120000 -0.600000
v 0.120000 0.360000 -0.600000
v 0.120000 0.360000 -0.360000
v -0.120000 0.360000 -0.360000
v -0.120000 0.360000 -0.600000
v 0.138784 -0.360000 -0.600000
v 0.138784 -0.360000 -0.360000
v -0.101216 -0.360000 -0.360000
v -0.101216 -0.360000 -0.600000
v 0.138784 -0.120000 -0.600000
v 0.138784 -0.120000 -0.360000
v -0.101216 -0.120000 -0.360000
v -0.101216 -0.120000 -0.600000
v 0.120000 -0.360000 -0.360000
v 0.120000 -0.360000 -0.120000
v -0.120000 -0.360000 -0.120000
v -0.120000 -0.360000 -0.360000
v 0.120000 -0.120000 -0.360000
v 0.120000 -0.120000 -0.120000
v -0.120000 -0.120000 -0.120000
v -0.120000 -0.120000 -0.360000
v 0.120000 -0.360000 0.120000
v 0.120000 -0.360000 0.360000
v -0.120000 -0.360000 0.360000
v -0.120000 -0.360000 0.120000
v 0.120000 -0.120000 0.120000
v 0.120000 -0.120000 0.360000
v -0.120000 -0.120000 0.360000
v -0.120000 -0.120000 0.120000
v 0.120000 0.120000 0.360000
v 0.120000 0.120000 0.600000
v -0.120000 0.120000 0.600000
v -0.120000 0.120000 0.360000
v 0.120000 0.360000 0.360000
v 0.120000 0.360000 0.600000
v -0.120000 0.360000 0.600000
v -0.120000 0.360000 0.360000
v 0.120000 -0.120000 0.360000
v 0.120000 -0.120000 0.600000
v -0.144469 -0.120000 0.600000
v -0.144469 -0.120000 0.360000
v 0.120000 0.120000 0.360000
v 0.120000 0.120000 0.600000
v -0.144469 0.120000 0.600000
v -0.144469 0.120000 0.360000
v 0.120000 -0.360000 0.360000
v 0.120000 -0.360000 0.600000
v -0.120000 -0.360000 0.600000
v -0.120000 -0.360000 0.360000
v 0.120000 -0.120000 0.360000
v 0.120000 -0.120000 0.600000
v -0.120000 -0.120000 0.600000
v -0.120000 -0.120000 0.360000
v 0.120000 -0.600000 0.120000
v 0.120000 -0.600000 0.360000
v -0.120000 -0.600000 0.360000
v -0.120000 -0.600000 0.120000
v 0.120000 -0.360000 0.120000
v 0.120000 -0.360000 0.360000
v -0.120000 -0.360000 0.360000
v -0.120000 -0.360000 0.120000
v 0.120000 -0.600000 -0.120000
v 0.120000 -0.600000 0.120000
v -0.120000 -0.600000 0.120000
v -0.120000 -0.600000 -0.120000
v 0.120000 -0.360000 -0.120000
v 0.120000 -0.360000 0.120000
v -0.120000 -0.360000 0.120000
v -0.120000 -0.360000 -0.120000
v 0.120000 -0.600000 -0.360000
v 0.120000 -0.600000 -0.120000
v -0.120000 -0.600000 -0.120000
v -0.120000 -0.600000 -0.360000
v 0.120000 -0.360000 -0.360000
v 0.120000 -0.360000 -0.120000
v -0.120000 -0.360000 -0.120000
v -0.120000 -0.360000 -0.360000
v 0.120000 -0.600000 -0.600000
v 0.120000 -0.600000 -0.360000
v -0.120000 -0.600000 -0.360000
v -0.120000 -0.600000 -0.600000
v 0.120000 -0.360000 -0.600000
v 0.120000 -0.360000 -0.360000
v -0.120000 -0.360000 -0.360000
v -0.120000 -0.360000 -0.600000
v 0.138784 -0.600000 0.360000
v 0.138784 -0.600000 0.600000
v -0.101216 -0.600000 0.600000
v -0.101216 -0.600000 0.360000
v 0.138784 -0.360000 0.360000
v 0.138784 -0.360000 0.600000
v -0.101216 -0.360000 0.600000
v -0.101216 -0.360000 0.360000
v 0.084601 0.360000 0.360000
v 0.084601 0.360000 0.600000
v -0.155399 0.360000 0.600000
v -0.155399 0.360000 0.360000
v 0.084601 0.600000 0.360000
v 0.084601 0.600000 0.600000
v -0.155399 0.600000 0.600000
v -0.155399 0.600000 0.360000
v 0.120000 0.360000 0.120000
v 0.120000 0.360000 0.360000
v -0.120000 0.360000 0.360000
v -0.120000 0.360000 0.120000
v 0.120000 0.600000 0.120000
v 0.120000 0.600000 0.360000
v -0.120000 0.600000 0.360000
v -0.120000 0.600000 0.120000
v 0.120000 0.360000 -0.120000
v 0.120000 0.360000 0.120000
v -0.120000 0.360000 0.120000
v -0.120000 0.360000 -0.120000
v 0.120000 0.600000 -0.120000
v 0.120000 0.600000 0.120000
v -0.120000 0.600000 0.120000
v -0.120000 0.600000 -0.120000
v 0.120000 0.360000 -0.360000
v 0.120000 0.360000 -0.120000
v -0.120000 0.360000 -0.120000
v -0.120000 0.360000 -0.360000
v 0.120000 0.600000 -0.360000
v 0.120000 0.600000 -0.120000
v -0.120000 0.600000 -0.120000
v -0.120000 0.600000 -0.360000
v 0.120000 0.360000 -0.600000
v 0.120000 0.360000 -0.360000
v -0.120000 0.360000 -0.360000
v -0.120000 0.360000 -0.600000
v 0.120000 0.600000 -0.600000
v 0.120000 0.600000 -0.360000
v -0.120000 0.600000 -0.360000
v -0.120000 0.600000 -0.600000
v 0.120000 0.600000 0.120000
v 0.120000 0.600000 0.360000
v -0.120000 0.600000 0.360000
v -0.120000 0.600000 0.120000
v 0.120000 0.840000 0.120000
v 0.120000 0.840000 0.360000
v -0.120000 0.840000 0.360000
v -0.120000 0.840000 0.120000
v 0.147473 0.600000 -0.120000
v 0.147473 0.600000 0.120000
v -0.092527 0.600000 0.120000
v -0.092527 0.600000 -0.120000
v 0.147474 0.840000 -0.120000
v 0.147473 0.840000 0.120000
v -0.092527 0.840000 0.120000
v -0.092527 0.840000 -0.120000
v 0.095531 0.120000 -0.840000
v 0.095531 0.120000 -0.600000
v -0.144469 0.120000 -0.600000
v -0.144469 0.120000 -0.840000
v 0.095531 0.360000 -0.840000
v 0.095531 0.360000 -0.600000
v -0.144469 0.360000 -0.600000
v -0.144469 0.360000 -0.840000
v 0.145934 -0.840000 -0.120000
v 0.145934 -0.840000 0.120000
v -0.094066 -0.840000 0.120000
v -0.094066 -0.840000 -0.120000
v 0.145934 -0.600000 -0.120000
v 0.145934 -0.600000 0.120000
v -0.094066 -0.600000 0.120000
v -0.094066 -0.600000 -0.120000
v 0.096830 -0.840000 0.120000
v 0.096830 -0.840000 0.360000
v -0.143170 -0.840000 0.360000
v -0.143170 -0.840000 0.120000
v 0.096830 -0.600000 0.120000
v 0.096830 -0.600000 0.360000
v -0.143170 -0.600000 0.360000
v -0.143170 -0.600000 0.120000
v 0.095531 -0.120000 0.600000
v 0.095531 -0.120000 0.840000
v -0.120000 -0.120000 0.840000
v -0.120000 -0.120000 0.600000
v 0.095531 0.120000 0.600000
v 0.095531 0.120000 0.840000
v -0.120000 0.120000 0.840000
v -0.120000 0.120000 0.600000
vn 0.0000 -1.0000 0.0000
vn 0.0000 1.0000 -0.0000
vn 0.0000 -0.0000 1.0000
vn 0.0000 0.0000 -1.0000
vn 1.0000 -0.0000 0.0000
vn -1.0000 0.0000 0.0000
g Cube_Cube_sky
usemtl sky
s off
f 1//1 3//1 4//1
f 8//2 6//2 5//2
f 6//3 3//3 2//3
f 17//1 19//1 20//1
f 22//3 19//3 18//3
f 17//4 24//4 21//4
f 26//1 28//1 25//1
f 32//2 30//2 29//2
f 25//4 32//4 29//4
f 34//1 36//1 33//1
f 40//2 38//2 37//2
f 38//3 35//3 34//3
f 33//4 40//4 37//4
f 49//1 51//1 52//1
f 56//2 54//2 53//2
f 54//3 51//3 50//3
f 49//4 56//4 53//4
f 64//2 62//2 61//2
f 66//1 68//1 65//1
f 72//2 70//2 69//2
f 69//5 66//5 65//5
f 70//3 67//3 66//3
f 67//6 72//6 68//6
f 65//4 72//4 69//4
f 82//1 84//1 81//1
f 86//3 83//3 82//3
f 90//1 92//1 89//1
f 96//2 94//2 93//2
f 94//3 91//3 90//3
f 89//4 96//4 93//4
f 98//1 100//1 97//1
f 104//2 102//2 101//2
f 101//5 98//5 97//5
f 102//3 99//3 98//3
f 99//6 104//6 100//6
f 97//4 104//4 101//4
f 120//2 118//2 117//2
f 113//4 120//4 117//4
f 128//2 126//2 125//2
f 121//4 128//4 125//4
f 136//2 134//2 133//2
f 134//3 131//3 130//3
f 129//4 136//4 133//4
f 144//2 142//2 141//2
f 142//3 139//3 138//3
f 137//4 144//4 141//4
f 150//3 147//3 146//3
f 162//1 164//1 161//1
f 168//2 166//2 165//2
f 165//5 162//5 161//5
f 166//3 163//3 162//3
f 163//6 168//6 164//6
f 161//4 168//4 165//4
f 170//1 172//1 169//1
f 176//2 174//2 173//2
f 173//5 170//5 169//5
f 174//3 171//3 170//3
f 175//6 172//6 171//6
f 169//4 176//4 173//4
f 177//1 179//1 180//1
f 182//3 179//3 178//3
f 177//4 184//4 181//4
f 186//1 188//1 185//1
f 192//2 190//2 189//2
f 189//5 186//5 185//5
f 190//3 187//3 186//3
f 191//6 188//6 187//6
f 185//4 192//4 189//4
f 194//1 196//1 193//1
f 200//2 198//2 197//2
f 197//5 194//5 193//5
f 198//3 195//3 194//3
f 195//6 200//6 196//6
f 193//4 200//4 197//4
f 201//1 203//1 204//1
f 208//2 206//2 205//2
f 205//5 202//5 201//5
f 206//3 203//3 202//3
f 203//6 208//6 204//6
f 201//4 208//4 205//4
f 210//1 212//1 209//1
f 216//2 214//2 213//2
f 213//5 210//5 209//5
f 214//3 211//3 210//3
f 211//6 216//6 212//6
f 209//4 216//4 213//4
f 218//1 220//1 217//1
f 224//2 222//2 221//2
f 221//5 218//5 217//5
f 222//3 219//3 218//3
f 223//6 220//6 219//6
f 217//4 224//4 221//4
f 241//4 248//4 245//4
f 1//1 2//1 3//1
f 8//2 7//2 6//2
f 6//3 7//3 3//3
f 17//1 18//1 19//1
f 22//3 23//3 19//3
f 17//4 20//4 24//4
f 26//1 27//1 28//1
f 32//2 31//2 30//2
f 25//4 28//4 32//4
f 34//1 35//1 36//1
f 40//2 39//2 38//2
f 38//3 39//3 35//3
f 33//4 36//4 40//4
f 49//1 50//1 51//1
f 56//2 55//2 54//2
f 54//3 55//3 51//3
f 49//4 52//4 56//4
f 64//2 63//2 62//2
f 66//1 67//1 68//1
f 72//2 71//2 70//2
f 69//5 70//5 66//5
f 70//3 71//3 67//3
f 67//6 71//6 72//6
f 65//4 68//4 72//4
f 82//1 83//1 84//1
f 86//3 87//3 83//3
f 90//1 91//1 92//1
f 96//2 95//2 94//2
f 94//3 95//3 91//3
f 89//4 92//4 96//4
f 98//1 99//1 100//1
f 104//2 103//2 102//2
f 101//5 102//5 98//5
f 102//3 103//3 99//3
f 99//6 103//6 104//6
f 97//4 100//4 104//4
f 120//2 119//2 118//2
f 113//4 116//4 120//4
f 128//2 127//2 126//2
f 121//4 124//4 128//4
f 136//2 135//2 134//2
f 134//3 135//3 131//3
f 129//4 132//4 136//4
f 144//2 143//2 142//2
f 142//3 143//3 139//3
f 137//4 140//4 144//4
f 150//3 151//3 147//3
f 162//1 163//1 164//1
f 168//2 167//2 166//2
f 165//5 166//5 162//5
f 166//3 167//3 163//3
f 163//6 167//6 168//6
f 161//4 164//4 168//4
f 170//1 171//1 172//1
f 176//2 175//2 174//2
f 173//5 174//5 170//5
f 174//3 175//3 171//3
f 175//6 176//6 172//6
f 169//4 172//4 176//4
f 177//1 178//1 179//1
f 182//3 183//3 179//3
f 177//4 180//4 184//4
f 186//1 187//1 188//1
f 192//2 191//2 190//2
f 189//5 190//5 186//5
f 190//3 191//3 187//3
f 191//6 192//6 188//6
f 185//4 188//4 192//4
f 194//1 195//1 196//1
f 200//2 199//2 198//2
f 197//5 198//5 194//5
f 198//3 199//3 195//3
f 195//6 199//6 200//6
f 193//4 196//4 200//4
f 201//1 202//1 203//1
f 208//2 207//2 206//2
f 205//5 206//5 202//5
f 206//3 207//3 203//3
f 203//6 207//6 208//6
f 201//4 204//4 208//4
f 210//1 211//1 212//1
f 216//2 215//2 214//2
f 213//5 214//5 210//5
f 214//3 215//3 211//3
f 211//6 215//6 216//6
f 209//4 212//4 216//4
f 218//1 219//1 220//1
f 224//2 223//2 222//2
f 221//5 222//5 218//5
f 222//3 223//3 219//3
f 223//6 224//6 220//6
f 217//4 220//4 224//4
f 241//4 244//4 248//4
g Cube_Cube_green
usemtl green
f 58//1 60//1 57//1
f 61//5 58//5 57//5
f 62//3 59//3 58//3
f 59//6 64//6 60//6
f 57//4 64//4 61//4
f 74//1 76//1 73//1
f 80//2 78//2 77//2
f 77//5 74//5 73//5
f 78//3 75//3 74//3
f 79//6 76//6 75//6
f 73//4 80//4 77//4
f 106//1 108//1 105//1
f 112//2 110//2 109//2
f 109//5 106//5 105//5
f 110//3 107//3 106//3
f 111//6 108//6 107//6
f 105//4 112//4 109//4
f 114//1 116//1 113//1
f 117//5 114//5 113//5
f 118//3 115//3 114//3
f 119//6 116//6 115//6
f 122//1 124//1 121//1
f 125//5 122//5 121//5
f 126//3 123//3 122//3
f 123//6 128//6 124//6
f 129//1 131//1 132//1
f 133//5 130//5 129//5
f 131//6 136//6 132//6
f 138//1 140//1 137//1
f 141//5 138//5 137//5
f 139//6 144//6 140//6
f 146//1 148//1 145//1
f 152//2 150//2 149//2
f 149//5 146//5 145//5
f 147//6 152//6 148//6
f 145//4 152//4 149//4
f 154//1 156//1 153//1
f 160//2 158//2 157//2
f 157//5 154//5 153//5
f 158//3 155//3 154//3
f 155//6 160//6 156//6
f 153//4 160//4 157//4
f 225//1 227//1 228//1
f 232//2 230//2 229//2
f 229//5 226//5 225//5
f 230//3 227//3 226//3
f 227//6 232//6 228//6
f 225//4 232//4 229//4
f 234//1 236//1 233//1
f 240//2 238//2 237//2
f 237//5 234//5 233//5
f 238//3 235//3 234//3
f 239//6 236//6 235//6
f 233//4 240//4 237//4
f 242//1 244//1 241//1
f 248//2 246//2 245//2
f 245//5 242//5 241//5
f 246//3 243//3 242//3
f 243//6 248//6 244//6
f 58//1 59//1 60//1
f 61//5 62//5 58//5
f 62//3 63//3 59//3
f 59//6 63//6 64//6
f 57//4 60//4 64//4
f 74//1 75//1 76//1
f 80//2 79//2 78//2
f 77//5 78//5 74//5
f 78//3 79//3 75//3
f 79//6 80//6 76//6
f 73//4 76//4 80//4
f 106//1 107//1 108//1
f 112//2 111//2 110//2
f 109//5 110//5 106//5
f 110//3 111//3 107//3
f 111//6 112//6 108//6
f 105//4 108//4 112//4
f 114//1 115//1 116//1
f 117//5 118//5 114//5
f 118//3 119//3 115//3
f 119//6 120//6 116//6
f 122//1 123//1 124//1
f 125//5 126//5 122//5
f 126//3 127//3 123//3
f 123//6 127//6 128//6
f 129//1 130//1 131//1
f 133//5 134//5 130//5
f 131//6 135//6 136//6
f 138//1 139//1 140//1
f 141//5 142//5 138//5
f 139//6 143//6 144//6
f 146//1 147//1 148//1
f 152//2 151//2 150//2
f 149//5 150//5 146//5
f 147//6 151//6 152//6
f 145//4 148//4 152//4
f 154//1 155//1 156//1
f 160//2 159//2 158//2
f 157//5 158//5 154//5
f 158//3 159//3 155//3
f 155//6 159//6 160//6
f 153//4 156//4 160//4
f 225//1 226//1 227//1
f 232//2 231//2 230//2
f 229//5 230//5 226//5
f 230//3 231//3 227//3
f 227//6 231//6 232//6
f 225//4 228//4 232//4
f 234//1 235//1 236//1
f 240//2 239//2 238//2
f 237//5 238//5 234//5
f 238//3 239//3 235//3
f 239//6 240//6 236//6
f 233//4 236//4 240//4
f 242//1 243//1 244//1
f 248//2 247//2 246//2
f 245//5 246//5 242//5
f 246//3 247//3 243//3
f 243//6 247//6 248//6
g Cube_Cube_white
usemtl white
f 5//5 2//5 1//5
f 3//6 8//6 4//6
f 1//4 8//4 5//4
f 9//1 11//1 12//1
f 16//2 14//2 13//2
f 13//5 10//5 9//5
f 14//3 11//3 10//3
f 11//6 16//6 12//6
f 9//4 16//4 13//4
f 24//2 22//2 21//2
f 21//5 18//5 17//5
f 19//6 24//6 20//6
f 88//2 86//2 85//2
f 85//5 82//5 81//5
f 87//6 84//6 83//6
f 81//4 88//4 85//4
f 93//5 90//5 89//5
f 95//6 92//6 91//6
f 5//5 6//5 2//5
f 3//6 7//6 8//6
f 1//4 4//4 8//4
f 9//1 10//1 11//1
f 16//2 15//2 14//2
f 13//5 14//5 10//5
f 14//3 15//3 11//3
f 11//6 15//6 16//6
f 9//4 12//4 16//4
f 24//2 23//2 22//2
f 21//5 22//5 18//5
f 19//6 23//6 24//6
f 88//2 87//2 86//2
f 85//5 86//5 82//5
f 87//6 88//6 84//6
f 81//4 84//4 88//4
f 93//5 94//5 90//5
f 95//6 96//6 92//6
g Cube_Cube_red
usemtl red
f 29//5 26//5 25//5
f 30//3 27//3 26//3
f 31//6 28//6 27//6
f 41//1 43//1 44//1
f 48//2 46//2 45//2
f 45//5 42//5 41//5
f 46//3 43//3 42//3
f 43//6 48//6 44//6
f 41//4 48//4 45//4
f 53//5 50//5 49//5
f 55//6 52//6 51//6
f 184//2 182//2 181//2
f 181//5 178//5 177//5
f 183//6 180//6 179//6
f 29//5 30//5 26//5
f 30//3 31//3 27//3
f 31//6 32//6 28//6
f 41//1 42//1 43//1
f 48//2 47//2 46//2
f 45//5 46//5 42//5
f 46//3 47//3 43//3
f 43//6 47//6 48//6
f 41//4 44//4 48//4
f 53//5 54//5 50//5
f 55//6 56//6 52//6
f 184//2 183//2 182//2
f 181//5 182//5 178//5
f 183//6 184//6 180//6
g Cube_Cube_door
usemtl door
f 37//5 34//5 33//5
f 35//6 40//6 36//6
f 37//5 38//5 34//5
f 35//6 39//6 40//6
