# Blender v2.77 (sub 0) OBJ File: 'test.blend'
# www.blender.org
mtllib test.mtl
o Cube
v 1.000000 0.000000 -1.000000
v 1.000000 0.000000 1.000000
v -1.000000 0.000000 1.000000
v -1.000000 0.000000 -1.000000
v 1.000000 2.000000 -0.999999
v 0.999999 2.000000 1.000001
v -1.000000 2.000000 1.000000
v -1.000000 2.000000 -1.000000
v 3.157739 0.000000 -3.157739
v 3.157739 0.000000 3.157739
v -3.157740 0.000000 3.157739
v -3.157738 0.000000 -3.157740
v -0.000000 3.344069 0.000000
vn -0.0000 0.5969 0.8023
vn 0.8023 0.5969 0.0000
vn -0.8023 0.5969 -0.0000
vn 0.0000 0.5969 -0.8023
vn 1.0000 -0.0000 0.0000
vn 0.0000 -0.0000 1.0000
vn -1.0000 -0.0000 -0.0000
vn 0.0000 0.0000 -1.0000
vn 0.0000 1.0000 0.0000
g Cube_Cube_roof
usemtl roof
s off
f 7//1 6//1 13//1
f 6//2 5//2 13//2
f 8//3 7//3 13//3
f 5//4 8//4 13//4
g Cube_Cube_walls
usemtl walls
f 5//5 2//5 1//5
f 6//6 3//6 2//6
f 3//7 8//7 4//7
f 1//8 8//8 5//8
f 5//5 6//5 2//5
f 6//6 7//6 3//6
f 3//7 7//7 8//7
f 1//8 4//8 8//8
g Cube_Cube_ground
usemtl ground
f 3//9 12//9 11//9
f 2//9 11//9 10//9
f 1//9 12//9 4//9
f 2//9 9//9 1//9
f 3//9 4//9 12//9
f 2//9 3//9 11//9
f 1//9 9//9 12//9
f 2//9 10//9 9//9
